<svg xmlns="http://www.w3.org/2000/svg" fill="white" viewBox="0 0 630.59 619.5">
    <path fill="inherit" d="M370.25,456c9.63-1.56,19.15-2.58,28.47-4.65,21.53-4.78,42-12.14,60-25.29,20.64-15.08,33.49-35.53,40.79-59.72,4-13.34,6-27,7.13-40.91a173.07,173.07,0,0,0-.12-32.43c-2.43-22.84-10.7-43.29-25.54-61-.59-.7-1.17-1.41-1.78-2.09a7.34,7.34,0,0,1-1.46-8.09,85.77,85.77,0,0,0,5.07-30.07c0-14.76-3.52-28.8-8.5-42.56-.94-2.61-3-3.07-5.33-3.3-7.61-.76-14.88.72-22,3.19a226.34,226.34,0,0,0-52.14,25.91,10.61,10.61,0,0,1-9,1.49,282.25,282.25,0,0,0-40.65-7.49,275.56,275.56,0,0,0-42.9-1.29,286.57,286.57,0,0,0-57.07,8.71A12,12,0,0,1,235,174.64a204.27,204.27,0,0,0-53.16-25.45c-5.55-1.69-11.1-3.56-17-3.72-5.21-.15-7.77,1.58-9.77,6.46a105.39,105.39,0,0,0-5.5,19.65,98.57,98.57,0,0,0-1,34,81.06,81.06,0,0,0,4.32,17.1c1.08,2.78.49,4.91-1.41,7a107.87,107.87,0,0,0-26.92,59.79,182.54,182.54,0,0,0,12.95,93.58C146.86,405.55,163.05,422,184,434c16.75,9.56,34.86,15.09,53.72,18.47,6.62,1.19,13.26,2.27,19.94,3.08.78.09,1.88,0,2.17.82s-.71,1.22-1.21,1.74c-7.58,8-12.4,17.44-15.3,28a11.62,11.62,0,0,0-.28,2.22c-.5,6.5-3.09,9.87-9.44,11.57a139.56,139.56,0,0,1-20.47,4.25c-9.12,1-18.13.83-26.83-2.42-13.71-5.11-23.69-14.6-31-27-8.92-15.24-21.22-26.32-38.15-31.95a32.74,32.74,0,0,0-17.94-1.24,14.18,14.18,0,0,0-2.37.75c-2.82,1.18-3.51,2.87-2,5.54,2.14,3.92,4.85,7.44,8.82,9.66,12.73,7.15,21.45,18,28.17,30.63,3,5.66,5.7,11.48,8.19,17.38,8,18.87,22.79,29,42.21,32.94A138.61,138.61,0,0,0,236,539c3.16-.6,4.46.36,4.48,3.56,0,4.14,1.87,7.9,2.26,12a113.83,113.83,0,0,1,.11,17.71c-.63,10-1.81,20-3.28,30-.67,4.51-1.31,9-3,13.34-1.48,3.85-2.9,4.55-6.8,3.45a316.23,316.23,0,0,1-216-211A310.19,310.19,0,0,1,.56,297.53C4.72,227.44,29.28,165.27,74.68,111.8,123,54.91,184.19,19.46,257.6,5.43a305.78,305.78,0,0,1,93.29-3.32c65,7.58,122.42,32.71,171.65,75.81,52.1,45.61,85.68,102.45,100.79,170.06a305.16,305.16,0,0,1,6.86,82.16Q625.12,431.75,562,511.57C525.16,558,478.58,591.3,422.92,611.81c-4.29,1.58-8.7,2.83-12.94,4.53-3.73,1.49-6.61.25-9.25-2.19-3.51-3.25-5.61-7.41-7.27-11.8a90.11,90.11,0,0,1-6-38.39c1.24-17.85,3.14-35.68,2.6-53.61-.4-13.39-2-26.53-8.42-38.63a63.26,63.26,0,0,0-9.32-12.93A7.36,7.36,0,0,1,370.25,456Z"/>
</svg>