<svg xmlns="http://www.w3.org/2000/svg" xmlns:xlink="http://www.w3.org/1999/xlink" viewBox="0 0 91.25 20"
     width="91.25px" height="20px">
    <defs>
        <filter id="filter">
            <feOffset dy="0.5"/>
            <feGaussianBlur result="blur"/>
            <feFlood/>
            <feComposite operator="in" in2="blur"/>
            <feComposite in="SourceGraphic"/>
        </filter>
    </defs>
    <g id="Calque_2" >
        <g id="Calque_1-2">
            <path d="M3,0H34a0,0,0,0,1,0,0V20a0,0,0,0,1,0,0H3a3,3,0,0,1-3-3V3A3,3,0,0,1,3,0Z" fill="#cea8c0"/>
            <path d="M34,0H88.25a3,3,0,0,1,3,3V17a3,3,0,0,1-3,3H34a0,0,0,0,1,0,0V0A0,0,0,0,1,34,0Z" fill="#433e5d"/>
            <g filter="url(#filter)">
                <path d="M46.74,13v-.78a2,2,0,0,1-1.75.92,2.37,2.37,0,0,1-1.37-.41,2.59,2.59,0,0,1-1-1.14,4,4,0,0,1-.35-1.69,4.35,4.35,0,0,1,.31-1.69,2.45,2.45,0,0,1,.94-1.17,2.48,2.48,0,0,1,1.39-.4,2.07,2.07,0,0,1,1,.24,2.13,2.13,0,0,1,.72.61V4.44h1V13Zm-3.35-3.1a2.66,2.66,0,0,0,.51,1.78,1.49,1.49,0,0,0,2.37,0A2.63,2.63,0,0,0,46.76,10a2.9,2.9,0,0,0-.5-1.87A1.51,1.51,0,0,0,45,7.54a1.46,1.46,0,0,0-1.18.58A2.84,2.84,0,0,0,43.39,9.93Z"
                      fill="#fff"/>
                <path d="M49.37,13V6.81h1v.94A2.6,2.6,0,0,1,51,6.88a1.19,1.19,0,0,1,.68-.21A2,2,0,0,1,52.77,7l-.36,1a1.46,1.46,0,0,0-.78-.23A1,1,0,0,0,51,8a1.17,1.17,0,0,0-.39.57,4.06,4.06,0,0,0-.18,1.23V13Z"
                      fill="#fff"/>
                <path d="M53.41,5.66V4.44h1.06V5.66Zm0,7.37V6.81h1.06V13Z" fill="#fff"/>
                <path d="M57.81,13,55.44,6.81h1.11l1.35,3.73c.14.4.27.82.4,1.25.09-.33.22-.72.39-1.18l1.39-3.8h1.09L58.8,13Z"
                      fill="#fff"/>
                <path d="M66.38,11l1.1.13a2.78,2.78,0,0,1-1,1.49,2.92,2.92,0,0,1-1.79.52,2.88,2.88,0,0,1-2.18-.84,3.29,3.29,0,0,1-.8-2.36,3.41,3.41,0,0,1,.81-2.43,2.76,2.76,0,0,1,2.11-.87,2.66,2.66,0,0,1,2,.85,3.35,3.35,0,0,1,.79,2.39v.28H62.85a2.33,2.33,0,0,0,.58,1.57,1.74,1.74,0,0,0,1.3.55,1.67,1.67,0,0,0,1-.31A2,2,0,0,0,66.38,11ZM62.9,9.32h3.49A2,2,0,0,0,66,8.15a1.6,1.6,0,0,0-1.31-.61A1.73,1.73,0,0,0,63.45,8,2,2,0,0,0,62.9,9.32Z"
                      fill="#fff"/>
                <path d="M68.8,13V6.81h1v.94a2.6,2.6,0,0,1,.67-.87,1.21,1.21,0,0,1,.68-.21A2,2,0,0,1,72.19,7l-.36,1a1.46,1.46,0,0,0-.78-.23,1,1,0,0,0-.62.21,1.12,1.12,0,0,0-.4.57,4.06,4.06,0,0,0-.18,1.23V13Z"
                      fill="#fff"/>
                <path d="M72.46,13v-1.2h1.2V13Z" fill="#fff"/>
                <path d="M74.16,15.45l.2-.9a2.39,2.39,0,0,0,.5.08.57.57,0,0,0,.48-.21,2.12,2.12,0,0,0,.16-1.07V6.81h1.06v6.56a3.06,3.06,0,0,1-.3,1.6,1.41,1.41,0,0,1-1.27.59A3.2,3.2,0,0,1,74.16,15.45ZM75.5,5.67V4.44h1.06V5.67Z"
                      fill="#fff"/>
                <path d="M77.76,11.17l1-.16a1.4,1.4,0,0,0,.49,1,1.72,1.72,0,0,0,1.12.34,1.67,1.67,0,0,0,1.09-.3.9.9,0,0,0,.35-.69.65.65,0,0,0-.31-.57,4.87,4.87,0,0,0-1.08-.35,10.59,10.59,0,0,1-1.62-.51,1.52,1.52,0,0,1-.68-.59,1.54,1.54,0,0,1-.23-.84,1.57,1.57,0,0,1,.19-.77,1.72,1.72,0,0,1,.52-.59,2.33,2.33,0,0,1,.67-.31,3.41,3.41,0,0,1,.92-.12,3.63,3.63,0,0,1,1.29.21,1.77,1.77,0,0,1,.82.57,2.1,2.1,0,0,1,.36,1l-1,.14a1.16,1.16,0,0,0-.41-.75,1.52,1.52,0,0,0-1-.27,1.75,1.75,0,0,0-1,.24.68.68,0,0,0-.31.56.56.56,0,0,0,.13.37.89.89,0,0,0,.4.28l.94.27A12.86,12.86,0,0,1,82,9.75a1.67,1.67,0,0,1,.7.55,1.59,1.59,0,0,1,.25.9,1.74,1.74,0,0,1-.31,1,2,2,0,0,1-.89.72,3.27,3.27,0,0,1-1.32.25,3,3,0,0,1-1.86-.5A2.4,2.4,0,0,1,77.76,11.17Z"
                      fill="#fff"/>
            </g>
            <path d="M13,10.51v2.62a3.94,3.94,0,1,0,7.87,0V10.57A9.8,9.8,0,0,1,13,10.51Z" fill="#f9d0b4"/>
            <path d="M21.57,10.19a7.62,7.62,0,0,1-.69.38v2.56a2.44,2.44,0,0,1,0,.27l.26,0a1.64,1.64,0,0,0,.44-3.23Z"
                  fill="#f9d0b4"/>
            <path d="M13,10.51a4,4,0,0,1-.61-.34,1.64,1.64,0,0,0,.35,3.25l.27,0a2.44,2.44,0,0,1,0-.27Z" fill="#f9d0b4"/>
            <path d="M12,9.26v.29a.6.6,0,0,0,.27.51,9.37,9.37,0,0,0,9.54,0A.6.6,0,0,0,22,9.55V9.26A18,18,0,0,0,12,9.26Z"
                  fill="#5b5d60"/>
            <path d="M22.11,7.61a12.19,12.19,0,0,0-2.82-.87,12,12,0,0,0-2.16-.18h-.24a11.73,11.73,0,0,0-2.44.23,11.58,11.58,0,0,0-2.56.82.38.38,0,0,0-.21.44L12,9.26A18,18,0,0,1,22,9.26l.28-1.21A.37.37,0,0,0,22.11,7.61Z"
                  fill="#fcdd86"/>
            <path d="M23.45,6.51A7.81,7.81,0,0,0,17,2.93a7.81,7.81,0,0,0-6.45,3.58c-.45.78.59,1.39,1.15,1.65l0-.11a.38.38,0,0,1,.21-.44,11.58,11.58,0,0,1,2.56-.82,11.73,11.73,0,0,1,2.44-.23h.24a12,12,0,0,1,2.16.18,12.19,12.19,0,0,1,2.82.87.37.37,0,0,1,.21.44l0,.11C22.86,7.9,23.9,7.29,23.45,6.51Z"
                  fill="#f5c84c"/>
            <path d="M16.94,17.33a4.21,4.21,0,0,1-4.2-4.2V10.59a.27.27,0,0,1,.53,0v2.54a3.68,3.68,0,0,0,7.35,0V10.65a.26.26,0,1,1,.52,0v2.48A4.2,4.2,0,0,1,16.94,17.33Z"/>
            <path d="M21.13,13.68h-.22a.27.27,0,0,1,.07-.53h.15a1.37,1.37,0,0,0,.43-2.68.27.27,0,0,1,.17-.51,1.91,1.91,0,0,1-.6,3.72Z"/>
            <path d="M12.75,13.68a1.91,1.91,0,0,1-1.91-1.9A1.93,1.93,0,0,1,12.21,10a.25.25,0,0,1,.33.17.27.27,0,0,1-.18.33,1.4,1.4,0,0,0-1,1.33,1.37,1.37,0,0,0,1.38,1.37h.13a.26.26,0,0,1,.06.52Z"/>
            <path d="M17,14.89a1.64,1.64,0,0,1-1.27-.55.27.27,0,0,1,0-.37.28.28,0,0,1,.38,0,1.21,1.21,0,0,0,1.72,0,.28.28,0,0,1,.38,0,.27.27,0,0,1,0,.37A1.64,1.64,0,0,1,17,14.89Z"/>
            <path d="M18.78,12.49a.53.53,0,0,0,.53-.53.53.53,0,0,0-.53-.53.52.52,0,0,0-.53.53A.53.53,0,0,0,18.78,12.49Z"/>
            <path d="M15.22,12.49a.53.53,0,0,0,.53-.53.52.52,0,0,0-.53-.53.53.53,0,0,0-.53.53A.53.53,0,0,0,15.22,12.49Z"/>
            <path d="M17,11.63a8.85,8.85,0,0,1-4.92-1.35.89.89,0,0,1-.39-.73V9.29a.27.27,0,1,1,.53,0v.26a.35.35,0,0,0,.15.29,9.09,9.09,0,0,0,9.26,0,.35.35,0,0,0,.15-.29V9.27a.27.27,0,0,1,.53,0v.28a.89.89,0,0,1-.39.73A8.85,8.85,0,0,1,17,11.63Z"/>
            <path d="M12,9.52a.26.26,0,0,1-.26-.2l-.28-1.21a.65.65,0,0,1,.36-.74,12.06,12.06,0,0,1,2.61-.84,12.48,12.48,0,0,1,2.5-.24h.24a12.25,12.25,0,0,1,5.09,1.08.65.65,0,0,1,.36.74L22.3,9.32a.27.27,0,0,1-.13.17.3.3,0,0,1-.21,0,17.71,17.71,0,0,0-9.92,0Zm5-1.25a17.76,17.76,0,0,1,4.85.65L22.07,8A.12.12,0,0,0,22,7.86,11.61,11.61,0,0,0,19.25,7a11.88,11.88,0,0,0-2.12-.18h-.25a11.87,11.87,0,0,0-2.38.23,10.9,10.9,0,0,0-2.5.8.14.14,0,0,0-.07.14l.22.93A17.76,17.76,0,0,1,17,8.27Z"/>
            <path d="M11.67,8.41l-.12,0a2.42,2.42,0,0,1-1.33-1.2,1,1,0,0,1,.1-.8A8.12,8.12,0,0,1,17,2.67a8.12,8.12,0,0,1,6.68,3.71,1,1,0,0,1,.1.8,2.42,2.42,0,0,1-1.33,1.2.26.26,0,1,1-.23-.47A2,2,0,0,0,23.28,7a.44.44,0,0,0-.06-.38A7.52,7.52,0,0,0,17,3.2a7.52,7.52,0,0,0-6.22,3.44.44.44,0,0,0-.06.38,2,2,0,0,0,1.06.89.27.27,0,0,1,.13.35A.28.28,0,0,1,11.67,8.41Z"/>
        </g>
    </g>
</svg>